<svg xmlns="http://www.w3.org/2000/svg" width="1200" height="1200" xmlns:v="https://vecta.io/nano"><g fill="#fff"><path d="M0 0h1200v1200H0z" fill-opacity="0" pointer-events="none"/><path d="M0 0h1200v1200H0z" fill-opacity="0" pointer-events="none"/></g><g fill="#ff8a86"><path d="M600.183-.167c331.2 0 600 268.8 600 600s-268.8 600-600 600-600-268.8-600-600 268.8-600 600-600z"/><path d="M598.855 926.686c-180.1 0-326.1-146.035-326.1-326.158s146.008-326.158 326.1-326.158c180.08 0 326.1 146.035 326.1 326.158s-146.008 326.158-326.1 326.158zm0-608.062c-144.07 0-278.044 139.714-278.044 283.8 0 144.106 132.068 278.092 276.138 278.092S876.9 744.634 876.9 600.53c.01-144.096-133.955-281.904-278.034-281.904zM501.032 796.22l97.833-163.075L468.42 600.53l228.276-195.7-65.222 163.074 130.443 32.617-260.887 195.7zm521.725 141.33l-86.777 86.822-108.538-108.527 86.816-86.832 108.498 108.547z" fill="#2b334b"/><path d="M1533.2 682.862l-20.97 28.596m-1633.794-62.912l34.315-9.532M400.8 324.46l133.448 32.4" paint-order="stroke"/></g></svg>